<?xml version="1.0" encoding="UTF-8" standalone="no"?>
<svg width="10px" height="14px" viewBox="0 0 10 14" version="1.1" xmlns="http://www.w3.org/2000/svg" xmlns:xlink="http://www.w3.org/1999/xlink">
    <!-- Generator: Sketch 3.7.2 (28276) - http://www.bohemiancoding.com/sketch -->
    <title>Fill 37</title>
    <desc>Created with Sketch.</desc>
    <defs></defs>
    <g id="Page-1" stroke="none" stroke-width="1" fill="none" fill-rule="evenodd">
        <g id="icon-sprite" transform="translate(-222.000000, -5.000000)" fill="#8492A6">
            <path d="M226.7905,5.4453 C226.7745,5.4493 226.7585,5.4533 226.7435,5.4583 C226.5645,5.4983 226.4375,5.6583 226.4435,5.8413 L226.4435,17.1823 L222.9155,13.6543 C222.8435,13.5783 222.7435,13.5353 222.6395,13.5343 C222.4265,13.5353 222.2565,13.7093 222.2585,13.9213 C222.2585,14.0243 222.3005,14.1233 222.3745,14.1943 L226.5505,18.3833 L226.8265,18.6473 L227.1025,18.3833 L231.2795,14.1943 C231.4435,14.0613 231.4715,13.8193 231.3365,13.6543 C231.2035,13.4883 230.9615,13.4633 230.7975,13.5963 C230.7755,13.6133 230.7565,13.6333 230.7385,13.6543 L227.2105,17.1823 L227.2105,5.8413 C227.2185,5.6313 227.0535,5.4523 226.8405,5.4453 C226.8245,5.4433 226.8075,5.4453 226.7905,5.4453" id="Fill-37"></path>
        </g>
    </g>
</svg>