<?xml version="1.0" encoding="UTF-8" standalone="no"?>
<svg width="22px" height="22px" viewBox="0 0 22 22" version="1.1" xmlns="http://www.w3.org/2000/svg" xmlns:xlink="http://www.w3.org/1999/xlink">
    <!-- Generator: Sketch 3.7.2 (28276) - http://www.bohemiancoding.com/sketch -->
    <title>Fill 52</title>
    <desc>Created with Sketch.</desc>
    <defs></defs>
    <g id="Page-1" stroke="none" stroke-width="1" fill="none" fill-rule="evenodd">
        <g id="icon-sprite" transform="translate(-536.000000, -1.000000)" fill="#8492A6">
            <path d="M546.4346,6.7651 L546.4346,11.5651 L541.6346,11.5651 L541.6346,12.5261 L546.4346,12.5261 L546.4346,17.3251 L547.3936,17.3251 L547.3936,12.5261 L552.1946,12.5261 L552.1946,11.5651 L547.3936,11.5651 L547.3936,6.7651 L546.4346,6.7651 Z M546.9146,2.4461 C552.2226,2.4461 556.5156,6.7381 556.5156,12.0451 C556.5156,17.3531 552.2226,21.6451 546.9146,21.6451 C541.6066,21.6451 537.3146,17.3531 537.3146,12.0451 C537.3146,6.7381 541.6066,2.4461 546.9146,2.4461 L546.9146,2.4461 Z M546.9146,1.4851 C541.0876,1.4851 536.3546,6.2191 536.3546,12.0451 C536.3546,17.8711 541.0876,22.6061 546.9146,22.6061 C552.7416,22.6061 557.4746,17.8711 557.4746,12.0451 C557.4746,6.2191 552.7416,1.4851 546.9146,1.4851 L546.9146,1.4851 Z" id="Fill-52"></path>
        </g>
    </g>
</svg>