<?xml version="1.0" encoding="UTF-8" standalone="no"?>
<svg width="18px" height="17px" viewBox="0 0 18 17" version="1.1" xmlns="http://www.w3.org/2000/svg" xmlns:xlink="http://www.w3.org/1999/xlink">
    <!-- Generator: Sketch 3.7.2 (28276) - http://www.bohemiancoding.com/sketch -->
    <title>dropbox</title>
    <desc>Created with Sketch.</desc>
    <defs></defs>
    <g id="Page-1" stroke="none" stroke-width="1" fill="none" fill-rule="evenodd">
        <g id="icon-sprite" transform="translate(-52.000000, -9.000000)" fill="#1E88E5">
            <g id="dropbox" transform="translate(52.000000, 8.000000)">
                <polygon id="Fill-13" points="17.8887 4.2192 12.7897 0.9932 9.2487 3.9022 14.5407 6.9822"></polygon>
                <polygon id="Fill-15" points="0.6094 9.8213 5.8574 12.8973 9.2494 10.2953 4.2224 7.0953"></polygon>
                <polygon id="Fill-17" points="5.8574 0.9932 0.6094 4.3752 4.2224 7.0962 9.2494 3.9022"></polygon>
                <polygon id="Fill-19" points="9.249 10.2949 12.709 12.8969 17.889 9.8209 14.541 6.9819"></polygon>
                <polygon id="Fill-21" points="13.1826 13.7246 12.6306 14.0526 12.1196 13.6666 9.2486 11.5086 6.4436 13.6616 5.9326 14.0536 5.3776 13.7276 3.9696 12.9026 3.9696 14.1856 9.2436 17.6706 14.5296 14.2116 14.5296 12.9256"></polygon>
            </g>
        </g>
    </g>
</svg>