<?xml version="1.0" encoding="UTF-8" standalone="no"?>
<svg width="16px" height="20px" viewBox="0 0 16 20" version="1.1" xmlns="http://www.w3.org/2000/svg" xmlns:xlink="http://www.w3.org/1999/xlink">
    <!-- Generator: Sketch 3.7.2 (28276) - http://www.bohemiancoding.com/sketch -->
    <title>Fill 5</title>
    <desc>Created with Sketch.</desc>
    <defs></defs>
    <g id="Page-1" stroke="none" stroke-width="1" fill="none" fill-rule="evenodd">
        <g id="icon-sprite" transform="translate(-2.000000, -72.000000)" fill="#8492A6">
            <path d="M10.2642,80.4551 C10.0342,80.4551 9.8792,80.6091 9.8792,80.8391 L9.8792,84.6071 C9.8792,85.0681 9.7292,85.4471 8.8832,85.4471 C7.6942,85.4471 7.1912,85.7111 7.1912,86.4801 C7.1912,86.9781 7.3092,87.7511 8.8832,87.7511 C10.3422,87.7511 10.6472,86.6351 10.6472,86.0591 L10.6472,82.4471 C12.0302,82.4471 11.8782,82.9921 12.9152,83.1071 C13.1462,83.1461 13.3352,82.9901 13.3352,82.7591 L13.3352,81.6071 C13.3352,81.4151 13.1792,81.2231 12.9872,81.2231 C11.8352,81.1081 12.0692,80.4551 10.6472,80.4551 L10.2642,80.4551 Z M12.1832,74.0951 L16.2402,78.1511 L12.1832,78.1511 L12.1832,74.0951 Z M3.7362,73.5431 L11.4152,73.5431 L11.4152,78.5351 L11.4152,78.9191 L11.7992,78.9191 L16.7912,78.9191 L16.7912,91.2071 L3.7362,91.2071 L3.7362,73.5431 Z M2.9672,72.7751 L2.9672,73.1591 L2.9672,91.5911 L2.9672,91.9751 L3.3512,91.9751 L17.1752,91.9751 L17.5602,91.9751 L17.5602,91.5911 L17.5602,78.5351 L17.5602,78.3791 L17.4512,78.2591 L12.0762,72.8831 L11.9552,72.7751 L11.7992,72.7751 L3.3512,72.7751 L2.9672,72.7751 Z" id="Fill-5"></path>
        </g>
    </g>
</svg>