<?xml version="1.0" encoding="UTF-8" standalone="no"?>
<svg width="16px" height="20px" viewBox="0 0 16 20" version="1.1" xmlns="http://www.w3.org/2000/svg" xmlns:xlink="http://www.w3.org/1999/xlink">
    <!-- Generator: Sketch 3.7.2 (28276) - http://www.bohemiancoding.com/sketch -->
    <title>Fill 7</title>
    <desc>Created with Sketch.</desc>
    <defs></defs>
    <g id="Page-1" stroke="none" stroke-width="1" fill="none" fill-rule="evenodd">
        <g id="icon-sprite" transform="translate(-2.000000, -107.000000)" fill="#8492A6">
            <path d="M9.1113,116.8159 L12.5553,118.7949 L9.1113,120.7749 L9.1113,116.8159 Z M8.6553,115.7589 C8.4713,115.7949 8.3403,115.9569 8.3443,116.1439 L8.3443,121.4469 C8.3403,121.6599 8.5123,121.8329 8.7233,121.8349 C8.7933,121.8359 8.8603,121.8179 8.9193,121.7829 L13.5283,119.1309 C13.7133,119.0289 13.7803,118.7949 13.6773,118.6089 C13.6423,118.5459 13.5903,118.4939 13.5283,118.4589 L8.9193,115.8079 C8.8503,115.7679 8.7703,115.7519 8.6913,115.7589 L8.6553,115.7589 Z M12.1843,108.5949 L16.2393,112.6519 L12.1843,112.6519 L12.1843,108.5949 Z M3.7353,108.0439 L11.4153,108.0439 L11.4153,113.0349 L11.4153,113.4199 L11.7993,113.4199 L16.7913,113.4199 L16.7913,125.7079 L3.7353,125.7079 L3.7353,108.0439 Z M2.9673,107.2749 L2.9673,107.6599 L2.9673,126.0909 L2.9673,126.4749 L3.3513,126.4749 L17.1753,126.4749 L17.5593,126.4749 L17.5593,126.0909 L17.5593,113.0349 L17.5593,112.8789 L17.4513,112.7589 L12.0753,107.3829 L11.9553,107.2749 L11.7993,107.2749 L3.3513,107.2749 L2.9673,107.2749 Z" id="Fill-7"></path>
        </g>
    </g>
</svg>