<?xml version="1.0" encoding="UTF-8" standalone="no"?>
<svg width="16px" height="20px" viewBox="0 0 16 20" version="1.1" xmlns="http://www.w3.org/2000/svg" xmlns:xlink="http://www.w3.org/1999/xlink">
    <!-- Generator: Sketch 3.7.2 (28276) - http://www.bohemiancoding.com/sketch -->
    <title>Fill 9</title>
    <desc>Created with Sketch.</desc>
    <defs></defs>
    <g id="Page-1" stroke="none" stroke-width="1" fill="none" fill-rule="evenodd">
        <g id="icon-sprite" transform="translate(-2.000000, -137.000000)" fill="#8492A6">
            <path d="M13.2031,150.2153 C13.3021,150.2153 13.3811,150.2253 13.4321,150.2393 C13.4661,150.2483 13.4641,150.2553 13.4791,150.2633 C13.4331,150.2763 13.3591,150.2993 13.1431,150.2993 C13.0601,150.2993 12.9671,150.2443 12.8791,150.2273 C12.9871,150.2243 13.1051,150.2153 13.2031,150.2153 L13.2031,150.2153 Z M9.9641,148.7513 C10.2321,149.1553 10.5351,149.5363 10.8761,149.8793 C10.4411,149.9963 10.0531,150.0353 9.6161,150.1913 C9.4981,150.2333 9.4311,150.2913 9.3151,150.3353 C9.4561,150.0393 9.6221,149.8163 9.7481,149.5073 C9.8551,149.2403 9.8711,149.0163 9.9641,148.7513 L9.9641,148.7513 Z M9.6991,145.8473 C9.7011,145.8453 9.7141,145.8473 9.7601,145.8473 C9.7611,145.8493 9.7681,145.8553 9.7831,145.9073 C9.8141,146.0133 9.8201,146.2713 9.7961,146.5433 C9.7741,146.4523 9.6841,146.3073 9.6761,146.2313 C9.6511,146.0303 9.6821,145.9033 9.6991,145.8703 C9.7081,145.8553 9.6981,145.8493 9.6991,145.8473 L9.6991,145.8473 Z M9.7601,145.0793 C9.4571,145.0793 9.1491,145.2583 9.0161,145.5113 C8.8821,145.7643 8.8741,146.0383 8.9071,146.3273 C8.9621,146.7883 9.1781,147.3093 9.4481,147.8513 C9.3141,148.3183 9.2411,148.7223 9.0391,149.2193 C8.7851,149.8453 8.4751,150.3423 8.1761,150.8623 C7.7861,151.0503 7.2981,151.2223 7.0121,151.4153 C6.6911,151.6313 6.4341,151.8273 6.2921,152.1233 C6.2211,152.2713 6.1861,152.4783 6.2561,152.6633 C6.3241,152.8493 6.4721,152.9763 6.6281,153.0593 C6.9531,153.2363 7.3371,153.1303 7.6121,152.9393 C7.8871,152.7473 8.1321,152.4663 8.3791,152.1233 C8.5071,151.9463 8.6031,151.6573 8.7271,151.4503 C9.1271,151.2683 9.4131,151.0853 9.8671,150.9233 C10.4821,150.7043 11.0341,150.6083 11.6071,150.4793 C12.0851,150.8133 12.5891,151.0683 13.1431,151.0683 C13.4571,151.0683 13.7041,151.0533 13.9351,150.9233 C14.1671,150.7933 14.2961,150.4963 14.2961,150.2633 C14.2961,150.0753 14.2211,149.8783 14.0921,149.7473 C13.9641,149.6163 13.7971,149.5393 13.6361,149.4953 C13.3131,149.4053 12.9541,149.4133 12.5321,149.4593 C12.3061,149.4843 12.0031,149.6023 11.7521,149.6513 C11.7161,149.6213 11.6791,149.6113 11.6431,149.5793 C11.1331,149.1263 10.6531,148.5083 10.3001,147.8873 C10.2731,147.8413 10.2761,147.8133 10.2521,147.7673 C10.3391,147.4303 10.5141,147.0403 10.5521,146.7473 C10.6031,146.3513 10.6181,146.0013 10.5271,145.6913 C10.4821,145.5363 10.3971,145.3923 10.2641,145.2713 C10.1291,145.1513 9.9391,145.0793 9.7601,145.0793 L9.7601,145.0793 Z M12.1821,138.9113 L16.2391,142.9673 L12.1821,142.9673 L12.1821,138.9113 Z M3.7351,138.3593 L11.4161,138.3593 L11.4161,143.3513 L11.4161,143.7353 L11.8001,143.7353 L16.7921,143.7353 L16.7921,156.0233 L3.7351,156.0233 L3.7351,138.3593 Z M2.9681,137.5913 L2.9681,137.9753 L2.9681,156.4073 L2.9681,156.7913 L3.3511,156.7913 L17.1761,156.7913 L17.5591,156.7913 L17.5591,156.4073 L17.5591,143.3513 L17.5591,143.1943 L17.4521,143.0753 L12.0761,137.6983 L11.9561,137.5913 L11.8001,137.5913 L3.3511,137.5913 L2.9681,137.5913 Z" id="Fill-9"></path>
        </g>
    </g>
</svg>