<?xml version="1.0" encoding="UTF-8" standalone="no"?>
<svg width="16px" height="20px" viewBox="0 0 16 20" version="1.1" xmlns="http://www.w3.org/2000/svg" xmlns:xlink="http://www.w3.org/1999/xlink">
    <!-- Generator: Sketch 3.7.2 (28276) - http://www.bohemiancoding.com/sketch -->
    <title>Fill 3</title>
    <desc>Created with Sketch.</desc>
    <defs></defs>
    <g id="Page-1" stroke="none" stroke-width="1" fill="none" fill-rule="evenodd">
        <g id="icon-sprite" transform="translate(-2.000000, -40.000000)" fill="#8492A6">
            <path d="M11.6924,51.437 L13.3484,53.765 L11.8954,53.765 L10.9604,52.457 L11.6924,51.437 Z M8.6924,50.585 L10.0954,52.565 L10.1084,52.589 L10.1084,52.601 C10.1304,52.677 10.1764,52.745 10.2394,52.793 C10.2474,52.801 10.2554,52.81 10.2634,52.817 L10.9354,53.765 L6.4114,53.765 L8.6924,50.585 Z M8.6314,49.541 C8.5304,49.557 8.4394,49.613 8.3794,49.697 L5.3444,53.921 C5.2174,54.092 5.2554,54.332 5.4234,54.458 C5.4914,54.508 5.5724,54.534 5.6554,54.533 L11.6194,54.533 L11.6784,54.533 L11.7524,54.533 L14.1034,54.533 C14.3154,54.535 14.4894,54.364 14.4914,54.152 C14.4914,54.069 14.4654,53.988 14.4164,53.921 L11.9914,50.549 C11.9194,50.442 11.7974,50.379 11.6674,50.381 C11.5474,50.387 11.4354,50.449 11.3684,50.549 L10.4914,51.797 L9.0034,49.697 C8.9194,49.579 8.7754,49.519 8.6314,49.541 L8.6314,49.541 Z M13.7194,48.389 C13.2964,48.389 12.9524,48.733 12.9524,49.157 C12.9524,49.581 13.2964,49.925 13.7194,49.925 C14.1434,49.925 14.4874,49.581 14.4874,49.157 C14.4874,48.733 14.1434,48.389 13.7194,48.389 L13.7194,48.389 Z M12.1824,41.645 L16.2394,45.701 L12.1824,45.701 L12.1824,41.645 Z M3.7354,41.093 L11.4164,41.093 L11.4164,46.085 L11.4164,46.469 L11.7984,46.469 L16.7924,46.469 L16.7924,58.757 L3.7354,58.757 L3.7354,41.093 Z M2.9674,40.325 L2.9674,40.709 L2.9674,59.141 L2.9674,59.525 L3.3524,59.525 L17.1744,59.525 L17.5594,59.525 L17.5594,59.141 L17.5594,46.085 L17.5594,45.929 L17.4524,45.809 L12.0754,40.433 L11.9554,40.325 L11.7984,40.325 L3.3524,40.325 L2.9674,40.325 Z" id="Fill-3"></path>
        </g>
    </g>
</svg>