<?xml version="1.0" encoding="UTF-8" standalone="no"?>
<svg width="16px" height="20px" viewBox="0 0 16 20" version="1.1" xmlns="http://www.w3.org/2000/svg" xmlns:xlink="http://www.w3.org/1999/xlink">
    <!-- Generator: Sketch 3.7.2 (28276) - http://www.bohemiancoding.com/sketch -->
    <title>Fill 11</title>
    <desc>Created with Sketch.</desc>
    <defs></defs>
    <g id="Page-1" stroke="none" stroke-width="1" fill="none" fill-rule="evenodd">
        <g id="icon-sprite" transform="translate(-2.000000, -166.000000)" fill="#8492A6">
            <path d="M10.4673,176.2905 C10.4943,176.2845 10.5223,176.2905 10.5523,176.2905 C11.0223,176.2905 11.1523,177.1025 11.1523,177.8975 C11.1523,178.7795 11.0023,179.5775 10.5523,179.5775 C10.0883,179.5775 9.9203,178.7905 9.9273,177.9225 C9.9213,177.1575 10.0683,176.3825 10.4673,176.2905 L10.4673,176.2905 Z M7.2393,176.2775 C7.8463,176.2775 8.1273,176.8515 8.1273,177.8505 C8.1273,179.1875 7.6863,179.5905 7.2033,179.5905 C7.1583,179.5905 7.0943,179.5915 7.0363,179.5775 L7.0363,176.2905 C7.0943,176.2765 7.1673,176.2775 7.2393,176.2775 L7.2393,176.2775 Z M7.1193,175.7145 C6.8193,175.7145 6.5423,175.7455 6.3393,175.7985 L6.3393,180.1185 C6.4953,180.1445 6.7343,180.1655 6.9763,180.1655 C7.5433,180.1655 7.9773,180.0225 8.2723,179.7225 C8.6053,179.3955 8.8363,178.7965 8.8363,177.8505 C8.8363,176.9685 8.6183,176.3945 8.2603,176.0735 C7.9983,175.8325 7.6283,175.7145 7.1193,175.7145 L7.1193,175.7145 Z M13.9243,175.6895 C13.1393,175.6895 12.2433,176.3035 12.2433,177.9935 C12.2433,179.3515 12.8113,180.1655 13.8163,180.1655 C14.1033,180.1655 14.3333,180.1235 14.4633,180.0585 L14.3803,179.4705 C14.2763,179.5095 14.1123,179.5545 13.9473,179.5545 C13.4183,179.5545 12.9763,179.1275 12.9763,177.9455 C12.9763,176.7455 13.4713,176.3025 13.9473,176.3025 C14.1553,176.3025 14.2643,176.3455 14.3673,176.3975 L14.4873,175.7985 C14.4023,175.7455 14.2113,175.6895 13.9243,175.6895 L13.9243,175.6895 Z M10.5873,175.6785 C9.6993,175.6785 9.2073,176.6025 9.2073,177.9225 C9.2073,179.2535 9.6413,180.1785 10.5163,180.1785 L10.5273,180.1785 C11.2983,180.1785 11.8713,179.5325 11.8713,177.8745 C11.8713,176.6865 11.5083,175.6785 10.5873,175.6785 L10.5873,175.6785 Z M12.1833,167.6265 L16.2393,171.6825 L12.1833,171.6825 L12.1833,167.6265 Z M3.7373,167.0735 L11.4163,167.0735 L11.4163,172.0655 L11.4163,172.4495 L11.7993,172.4495 L16.7913,172.4495 L16.7913,184.7375 L3.7373,184.7375 L3.7373,167.0735 Z M2.9673,166.3065 L2.9673,166.6895 L2.9673,185.1225 L2.9673,185.5065 L3.3523,185.5065 L17.1763,185.5065 L17.5603,185.5065 L17.5603,185.1225 L17.5603,172.0655 L17.5603,171.9095 L17.4513,171.7905 L12.0763,166.4135 L11.9553,166.3065 L11.7993,166.3065 L3.3523,166.3065 L2.9673,166.3065 Z" id="Fill-11"></path>
        </g>
    </g>
</svg>