<?xml version="1.0" encoding="UTF-8" standalone="no"?>
<svg width="121px" height="107px" viewBox="0 0 121 107" version="1.1" xmlns="http://www.w3.org/2000/svg" xmlns:xlink="http://www.w3.org/1999/xlink">
    <!-- Generator: Sketch 3.7.2 (28276) - http://www.bohemiancoding.com/sketch -->
    <title>folder</title>
    <desc>Created with Sketch.</desc>
    <defs></defs>
    <g id="Page-1" stroke="none" stroke-width="1" fill="none" fill-rule="evenodd">
        <g id="icon-sprite" transform="translate(-121.000000, -46.000000)">
            <g id="folder" transform="translate(121.000000, 46.000000)">
                <path d="M7.9282,0.583 C4.0012,0.583 0.7702,3.817 0.7702,7.741 L0.7702,17.286 L0.7702,31.604 L0.7702,57.854 C0.7622,57.929 0.7622,58.005 0.7702,58.077 L0.7702,88.876 L0.7702,98.421 C0.7702,102.345 4.0012,105.581 7.9282,105.581 L112.9232,105.581 C116.8502,105.581 120.0852,102.345 120.0852,98.421 L120.0852,58.228 C120.0932,58.103 120.0932,57.978 120.0852,57.854 L120.0852,31.604 L120.0852,17.286 C120.0852,13.362 116.8502,10.128 112.9232,10.128 L43.7962,10.128 C43.8042,10.138 43.7732,10.128 43.7222,10.128 C43.6492,10.073 43.4312,9.894 43.0502,9.456 C42.4682,8.784 41.7882,7.671 41.0382,6.474 C40.2852,5.28 39.4932,4.015 38.5032,2.896 C37.5122,1.774 36.1292,0.583 34.1792,0.583 L7.9282,0.583 Z" fill="#FFFFFF" fill-rule="evenodd"></path>
                <path d="M7.9282,0.583 C4.0012,0.583 0.7702,3.817 0.7702,7.741 L0.7702,17.286 L0.7702,31.604 L0.7702,57.854 C0.7622,57.929 0.7622,58.005 0.7702,58.077 L0.7702,88.876 L0.7702,98.421 C0.7702,102.345 4.0012,105.581 7.9282,105.581 L112.9232,105.581 C116.8502,105.581 120.0852,102.345 120.0852,98.421 L120.0852,58.228 C120.0932,58.103 120.0932,57.978 120.0852,57.854 L120.0852,31.604 L120.0852,17.286 C120.0852,13.362 116.8502,10.128 112.9232,10.128 L43.7962,10.128 C43.8042,10.138 43.7732,10.128 43.7222,10.128 C43.6492,10.073 43.4312,9.894 43.0502,9.456 C42.4682,8.784 41.7882,7.671 41.0382,6.474 C40.2852,5.28 39.4932,4.015 38.5032,2.896 C37.5122,1.774 36.1292,0.583 34.1792,0.583 L7.9282,0.583 L7.9282,0.583 Z" id="Stroke-54" stroke="#E0E6ED" stroke-width="1"></path>
                <path d="M7.9282,29.2178 L112.9232,29.2178 C114.2662,29.2178 115.3112,30.2608 115.3112,31.6048 L115.3112,57.8548 C115.3072,57.9288 115.3072,58.0048 115.3112,58.0768 L115.3112,98.4208 C115.3112,99.7648 114.2662,100.8078 112.9232,100.8078 L7.9282,100.8078 C6.5882,100.8078 5.5392,99.7648 5.5392,98.4208 L5.5392,88.8758 L5.5392,58.2278 C5.5512,58.1028 5.5512,57.9778 5.5392,57.8548 L5.5392,31.6048 C5.5392,30.2608 6.5882,29.2178 7.9282,29.2178" id="Fill-55" fill="#FFFFFF" fill-rule="evenodd"></path>
                <path d="M7.9282,29.2178 L112.9232,29.2178 C114.2662,29.2178 115.3112,30.2608 115.3112,31.6048 L115.3112,57.8548 C115.3072,57.9288 115.3072,58.0048 115.3112,58.0768 L115.3112,98.4208 C115.3112,99.7648 114.2662,100.8078 112.9232,100.8078 L7.9282,100.8078 C6.5882,100.8078 5.5392,99.7648 5.5392,98.4208 L5.5392,88.8758 L5.5392,58.2278 C5.5512,58.1028 5.5512,57.9778 5.5392,57.8548 L5.5392,31.6048 C5.5392,30.2608 6.5882,29.2178 7.9282,29.2178 L7.9282,29.2178 Z" id="Stroke-56" stroke="#E0E6ED" stroke-width="1"></path>
            </g>
        </g>
    </g>
</svg>