<?xml version="1.0" encoding="UTF-8" standalone="no"?>
<svg width="20px" height="18px" viewBox="0 0 20 18" version="1.1" xmlns="http://www.w3.org/2000/svg" xmlns:xlink="http://www.w3.org/1999/xlink">
    <!-- Generator: Sketch 3.7.2 (28276) - http://www.bohemiancoding.com/sketch -->
    <title>Fill 1</title>
    <desc>Created with Sketch.</desc>
    <defs></defs>
    <g id="Page-1" stroke="none" stroke-width="1" fill="none" fill-rule="evenodd">
        <g id="icon-sprite" transform="translate(0.000000, -8.000000)" fill="#8492A6">
            <path d="M1.8154,13.6016 L18.7114,13.6016 C18.9274,13.6016 19.0954,13.7696 19.0954,13.9856 L19.0954,18.2096 C19.0944,18.2216 19.0944,18.2336 19.0954,18.2456 L19.0954,24.7376 C19.0954,24.9536 18.9274,25.1216 18.7114,25.1216 L1.8154,25.1216 C1.5994,25.1216 1.4314,24.9536 1.4314,24.7376 L1.4314,23.2016 L1.4314,18.2696 C1.4334,18.2496 1.4334,18.2286 1.4314,18.2096 L1.4314,13.9856 C1.4314,13.7696 1.5994,13.6016 1.8154,13.6016 L1.8154,13.6016 Z M1.8154,9.7616 L6.0394,9.7616 C6.0154,9.7616 6.0644,9.7616 6.1604,9.8696 C6.2534,9.9766 6.3634,10.1586 6.4834,10.3496 C6.6034,10.5406 6.7354,10.7466 6.8914,10.9256 C7.0464,11.1056 7.2604,11.2976 7.5754,11.2976 L18.7114,11.2976 C18.9274,11.2976 19.0954,11.4646 19.0954,11.6816 L19.0954,12.9056 C18.9734,12.8616 18.8474,12.8336 18.7114,12.8336 L1.8154,12.8336 C1.6794,12.8336 1.5524,12.8616 1.4314,12.9056 L1.4314,11.6816 L1.4314,10.1456 C1.4314,9.9296 1.5994,9.7616 1.8154,9.7616 L1.8154,9.7616 Z M1.8154,8.9936 C1.1834,8.9936 0.6644,9.5136 0.6644,10.1456 L0.6644,11.6816 L0.6644,13.9856 L0.6644,18.2096 C0.6634,18.2216 0.6634,18.2336 0.6644,18.2456 L0.6644,23.2016 L0.6644,24.7376 C0.6644,25.3696 1.1834,25.8896 1.8154,25.8896 L18.7114,25.8896 C19.3434,25.8896 19.8634,25.3696 19.8634,24.7376 L19.8634,18.2696 C19.8654,18.2496 19.8654,18.2286 19.8634,18.2096 L19.8634,13.9856 L19.8634,11.6816 C19.8634,11.0496 19.3434,10.5296 18.7114,10.5296 L7.5864,10.5296 C7.5884,10.5316 7.5844,10.5296 7.5754,10.5296 C7.5624,10.5206 7.5284,10.4916 7.4674,10.4216 C7.3744,10.3136 7.2644,10.1336 7.1434,9.9416 C7.0234,9.7496 6.8944,9.5456 6.7354,9.3656 C6.5764,9.1856 6.3534,8.9936 6.0394,8.9936 L1.8154,8.9936 L1.8154,8.9936 Z" id="Fill-1"></path>
        </g>
    </g>
</svg>