<?xml version="1.0" encoding="UTF-8" standalone="no"?>
<svg width="25px" height="25px" viewBox="0 0 25 25" version="1.1" xmlns="http://www.w3.org/2000/svg" xmlns:xlink="http://www.w3.org/1999/xlink">
    <!-- Generator: Sketch 3.7.2 (28276) - http://www.bohemiancoding.com/sketch -->
    <title>Fill 45</title>
    <desc>Created with Sketch.</desc>
    <defs></defs>
    <g id="Page-1" stroke="none" stroke-width="1" fill="none" fill-rule="evenodd">
        <g id="icon-sprite" transform="translate(-481.000000, 0.000000)" fill="#8492A6">
            <path d="M492.5161,9.7056 C492.4541,9.7296 492.4111,9.7936 492.4111,9.8706 L492.4111,17.7756 C492.4111,17.8796 492.4731,17.9396 492.5771,17.9396 L493.6861,17.9396 C493.7891,17.9396 493.8521,17.8796 493.8521,17.7756 L493.8521,9.8706 C493.8521,9.7676 493.7891,9.7056 493.6861,9.7056 L492.5771,9.7056 C492.5491,9.7056 492.5371,9.6976 492.5161,9.7056 L492.5161,9.7056 Z M492.5451,6.2406 C492.4441,6.2406 492.3811,6.3026 492.3811,6.4056 L492.3811,7.6656 C492.3811,7.7686 492.4421,7.8466 492.5451,7.8466 L493.7151,7.8466 C493.8191,7.8466 493.8811,7.7686 493.8811,7.6656 L493.8811,6.4056 C493.8811,6.3026 493.8191,6.2406 493.7151,6.2406 L492.5451,6.2406 Z M493.1311,1.0056 C499.2351,1.0056 504.1701,5.9426 504.1701,12.0456 C504.1701,18.1486 499.2351,23.0846 493.1311,23.0846 C487.0281,23.0846 482.0901,18.1486 482.0901,12.0456 C482.0901,5.9426 487.0281,1.0056 493.1311,1.0056 L493.1311,1.0056 Z M493.1311,0.0456 C486.5101,0.0456 481.1311,5.4246 481.1311,12.0456 C481.1311,18.6666 486.5101,24.0456 493.1311,24.0456 C499.7521,24.0456 505.1311,18.6666 505.1311,12.0456 C505.1311,5.4246 499.7521,0.0456 493.1311,0.0456 L493.1311,0.0456 Z" id="Fill-45"></path>
        </g>
    </g>
</svg>