<?xml version="1.0" encoding="UTF-8" standalone="no"?>
<svg width="25px" height="24px" viewBox="0 0 25 24" version="1.1" xmlns="http://www.w3.org/2000/svg" xmlns:xlink="http://www.w3.org/1999/xlink">
    <!-- Generator: Sketch 3.7.2 (28276) - http://www.bohemiancoding.com/sketch -->
    <title>Fill 39</title>
    <desc>Created with Sketch.</desc>
    <defs></defs>
    <g id="Page-1" stroke="none" stroke-width="1" fill="none" fill-rule="evenodd">
        <g id="icon-sprite" transform="translate(-278.000000, 0.000000)" fill="#8492A6">
            <path d="M297.5742,15.1509 C297.5532,15.1549 297.5342,15.1589 297.5142,15.1649 C297.2902,15.2149 297.1342,15.4169 297.1392,15.6449 L297.1392,17.5649 L295.2202,17.5649 L295.1752,17.5649 C294.9092,17.5769 294.7042,17.8029 294.7162,18.0669 C294.7292,18.3329 294.9542,18.5379 295.2202,18.5259 L297.1392,18.5259 L297.1392,20.4459 C297.1362,20.7119 297.3472,20.9279 297.6132,20.9319 C297.8782,20.9359 298.0962,20.7229 298.0982,20.4599 L298.0982,20.4459 L298.0982,18.5259 L300.0192,18.5259 C300.2852,18.5299 300.5032,18.3169 300.5052,18.0509 C300.5112,17.7879 300.2982,17.5689 300.0322,17.5649 L300.0192,17.5649 L298.0982,17.5649 L298.0982,15.6449 C298.1082,15.3809 297.9012,15.1589 297.6362,15.1489 C297.6162,15.1469 297.5952,15.1489 297.5742,15.1509 L297.5742,15.1509 Z M297.6202,13.7249 C300.0112,13.7249 301.9402,15.6529 301.9402,18.0459 C301.9402,20.4359 300.0112,22.3659 297.6202,22.3659 C295.2272,22.3659 293.3002,20.4359 293.3002,18.0459 C293.3002,15.6529 295.2272,13.7249 297.6202,13.7249 L297.6202,13.7249 Z M297.6202,12.7659 C294.7082,12.7659 292.3402,15.1349 292.3402,18.0459 C292.3402,20.9559 294.7082,23.3249 297.6202,23.3249 C300.5302,23.3249 302.8992,20.9559 302.8992,18.0459 C302.8992,15.1349 300.5302,12.7659 297.6202,12.7659 L297.6202,12.7659 Z M280.3402,1.7249 L285.6042,1.7249 C285.7452,1.7679 286.0352,2.2289 286.1902,2.4749 C286.5512,3.0529 286.9252,3.6449 287.5402,3.6449 L299.5402,3.6449 C299.8032,3.6449 300.0192,3.8609 300.0192,4.1249 L300.0192,5.6539 C299.8682,5.5999 299.7082,5.5649 299.5402,5.5649 L280.3402,5.5649 C280.1692,5.5649 280.0112,5.5999 279.8592,5.6539 L279.8592,2.2049 C279.8592,1.9419 280.0752,1.7249 280.3402,1.7249 L280.3402,1.7249 Z M280.3402,0.7659 C279.5462,0.7659 278.8992,1.4109 278.8992,2.2049 L278.8992,7.0049 L278.8992,12.2849 C278.8982,12.3009 278.8982,12.3149 278.8992,12.3299 L278.8992,20.4459 C278.8992,21.2389 279.5462,21.8849 280.3402,21.8849 L292.9842,21.8849 L292.2342,20.9259 L280.3402,20.9259 C280.0752,20.9259 279.8592,20.7099 279.8592,20.4459 L279.8592,12.3589 C279.8622,12.3359 279.8622,12.3109 279.8592,12.2849 L279.8592,7.0049 C279.8592,6.7339 280.0672,6.5259 280.3402,6.5259 L299.5402,6.5259 C299.8092,6.5259 300.0192,6.7339 300.0192,7.0049 C300.0182,7.0199 300.0182,7.0349 300.0192,7.0509 L300.0192,12.3749 L300.9792,13.0049 L300.9792,7.0799 C300.9812,7.0549 300.9812,7.0289 300.9792,7.0049 L300.9792,4.1249 C300.9792,3.3309 300.3332,2.6859 299.5402,2.6859 L287.5532,2.6859 C287.4212,2.6369 287.1482,2.2019 286.9992,1.9649 C286.6302,1.3769 286.2512,0.7659 285.6202,0.7659 L280.3402,0.7659 Z" id="Fill-39"></path>
        </g>
    </g>
</svg>