<?xml version="1.0" encoding="UTF-8" standalone="no"?>
<svg width="17px" height="16px" viewBox="0 0 17 16" version="1.1" xmlns="http://www.w3.org/2000/svg" xmlns:xlink="http://www.w3.org/1999/xlink">
    <!-- Generator: Sketch 3.7.2 (28276) - http://www.bohemiancoding.com/sketch -->
    <title>Fill 58</title>
    <desc>Created with Sketch.</desc>
    <defs></defs>
    <g id="Page-1" stroke="none" stroke-width="1" fill="none" fill-rule="evenodd">
        <g id="icon-sprite" transform="translate(-588.000000, -4.000000)" fill="#D0D9E4">
            <path d="M595.0049,4.8618 C597.9909,4.8618 600.4049,7.2758 600.4049,10.2618 C600.4049,13.2488 597.9909,15.6628 595.0049,15.6628 C592.0189,15.6628 589.6049,13.2488 589.6049,10.2618 C589.6049,7.2758 592.0189,4.8618 595.0049,4.8618 M595.0049,4.1418 C591.6289,4.1418 588.8849,6.8858 588.8849,10.2618 C588.8849,13.6378 591.6289,16.3828 595.0049,16.3828 C596.3399,16.3828 597.5749,15.9518 598.5829,15.2228 L603.3179,19.9488 L604.3309,18.9358 L599.6509,14.2448 C600.5709,13.1748 601.1239,11.7818 601.1239,10.2618 C601.1239,6.8858 598.3809,4.1418 595.0049,4.1418" id="Fill-58"></path>
        </g>
    </g>
</svg>