<?xml version="1.0" encoding="UTF-8" standalone="no"?>
<svg width="22px" height="13px" viewBox="0 0 22 13" version="1.1" xmlns="http://www.w3.org/2000/svg" xmlns:xlink="http://www.w3.org/1999/xlink">
    <!-- Generator: Sketch 3.7.2 (28276) - http://www.bohemiancoding.com/sketch -->
    <title>skydrive</title>
    <desc>Created with Sketch.</desc>
    <defs></defs>
    <g id="Page-1" stroke="none" stroke-width="1" fill="none" fill-rule="evenodd">
        <g id="icon-sprite" transform="translate(-50.000000, -67.000000)" fill="#084AB1">
            <g id="skydrive" transform="translate(50.000000, 67.000000)">
                <path d="M7.6133,12.4268 C6.3613,12.1148 5.6643,11.1198 5.6623,9.6438 C5.6613,9.1708 5.6963,8.9458 5.8133,8.6418 C6.1023,7.8978 6.8663,7.3368 7.8723,7.1298 C8.3733,7.0278 8.5273,6.9168 8.5273,6.6608 C8.5273,6.5808 8.5873,6.3428 8.6593,6.1298 C8.9903,5.1688 9.6033,4.3678 10.2573,4.0398 C10.9413,3.6968 11.2883,3.6198 12.1163,3.6238 C13.2923,3.6298 13.8803,3.8858 14.7003,4.7468 L15.1533,5.2218 L15.5573,5.0818 C17.5153,4.4048 19.4683,5.5578 19.6243,7.4858 L19.6673,8.0128 L20.0543,8.1518 C21.1543,8.5458 21.6713,9.3738 21.5773,10.5918 C21.5173,11.3878 21.1443,12.0248 20.5553,12.3398 L20.2773,12.4878 L14.1143,12.4988 C9.3783,12.5088 7.8733,12.4908 7.6133,12.4268" id="Fill-29"></path>
                <path d="M2.9932,11.5752 C2.2622,11.4012 1.4882,10.7572 1.1252,10.0182 C0.9192,9.6002 0.9092,9.5382 0.9092,8.7982 C0.9092,8.0942 0.9262,7.9802 1.0902,7.6312 C1.4362,6.8932 2.0972,6.3612 2.9292,6.1512 C3.1032,6.1072 3.2682,6.0382 3.2942,5.9952 C3.3202,5.9522 3.3492,5.7242 3.3592,5.4862 C3.4162,4.0122 4.3852,2.7122 5.7352,2.2942 C6.4662,2.0692 7.3832,2.1242 8.1782,2.4422 C8.4292,2.5432 8.4012,2.5642 8.9332,1.8662 C9.2482,1.4542 9.8852,0.9392 10.4062,0.6782 C10.9682,0.3952 11.5532,0.2642 12.2512,0.2672 C14.2062,0.2722 15.8902,1.4942 16.5132,3.3602 C16.7122,3.9562 16.7022,4.1222 16.4682,4.1282 C16.3652,4.1302 16.0722,4.1862 15.8162,4.2532 L15.3492,4.3752 L14.9252,3.9502 C13.7262,2.7502 11.7692,2.4912 10.1052,3.3112 C9.4412,3.6392 8.9072,4.1082 8.5042,4.7212 C8.2172,5.1582 7.8502,5.9732 7.8502,6.1762 C7.8502,6.3192 7.7342,6.3912 7.2372,6.5542 C5.7012,7.0572 4.8042,8.2212 4.8052,9.7112 C4.8052,10.2532 4.9442,10.9162 5.1382,11.2962 C5.2112,11.4392 5.2522,11.5752 5.2282,11.5982 C5.1692,11.6582 3.2582,11.6382 2.9932,11.5752" id="Fill-31"></path>
            </g>
        </g>
    </g>
</svg>