<?xml version="1.0" encoding="UTF-8" standalone="no"?>
<svg width="21px" height="22px" viewBox="0 0 21 22" version="1.1" xmlns="http://www.w3.org/2000/svg" xmlns:xlink="http://www.w3.org/1999/xlink">
    <!-- Generator: Sketch 3.7.2 (28276) - http://www.bohemiancoding.com/sketch -->
    <title>Fill 43</title>
    <desc>Created with Sketch.</desc>
    <defs></defs>
    <g id="Page-1" stroke="none" stroke-width="1" fill="none" fill-rule="evenodd">
        <g id="icon-sprite" transform="translate(-438.000000, -1.000000)" fill="#8492A6">
            <path d="M442.4966,21.6509 C442.2306,21.6509 442.0166,21.8659 442.0166,22.1299 C442.0166,22.3949 442.2306,22.6099 442.4966,22.6099 C442.7626,22.6099 442.9766,22.3949 442.9766,22.1299 C442.9766,21.8659 442.7626,21.6509 442.4966,21.6509 M442.4966,19.7309 C442.2306,19.7309 442.0166,19.9459 442.0166,20.2099 C442.0166,20.4749 442.2306,20.6899 442.4966,20.6899 C442.7626,20.6899 442.9766,20.4749 442.9766,20.2099 C442.9766,19.9459 442.7626,19.7309 442.4966,19.7309 M453.9716,5.3159 C453.9496,5.3189 453.9306,5.3249 453.9106,5.3309 C453.6876,5.3799 453.5316,5.5819 453.5356,5.8109 L453.5356,20.9599 L450.5216,17.9459 C450.4046,17.8249 450.2346,17.7739 450.0706,17.8109 C449.8106,17.8579 449.6376,18.1079 449.6836,18.3679 C449.7036,18.4709 449.7546,18.5649 449.8306,18.6349 L453.6096,22.4009 C453.6196,22.4169 453.6296,22.4299 453.6416,22.4459 L453.6726,22.4749 C453.6806,22.4849 453.6896,22.4969 453.7016,22.5049 L453.7156,22.5049 C453.7466,22.5359 453.7816,22.5589 453.8206,22.5809 L453.8366,22.5809 C453.8466,22.5869 453.8556,22.5899 453.8656,22.5939 L453.8816,22.5939 C453.8966,22.5999 453.9106,22.6059 453.9266,22.6099 C453.9766,22.6179 454.0256,22.6179 454.0766,22.6099 L454.1056,22.6099 C454.1486,22.5999 454.1876,22.5869 454.2266,22.5649 C454.2896,22.5339 454.3466,22.4869 454.3916,22.4299 L458.2016,18.6349 C458.3916,18.4459 458.3916,18.1349 458.2016,17.9459 C458.0106,17.7549 457.7016,17.7549 457.5106,17.9459 L454.4966,20.9599 L454.4966,5.8109 C454.5066,5.5459 454.2976,5.3229 454.0336,5.3139 C454.0126,5.3129 453.9926,5.3139 453.9716,5.3159 M454.0166,3.4109 C453.7506,3.4109 453.5356,3.6259 453.5356,3.8909 C453.5356,4.1559 453.7506,4.3709 454.0166,4.3709 C454.2816,4.3709 454.4966,4.1559 454.4966,3.8909 C454.4966,3.6259 454.2816,3.4109 454.0166,3.4109 M454.0166,1.4909 C453.7506,1.4909 453.5356,1.7059 453.5356,1.9699 C453.5356,2.2359 453.7506,2.4509 454.0166,2.4509 C454.2816,2.4509 454.4966,2.2359 454.4966,1.9699 C454.4966,1.7059 454.2816,1.4909 454.0166,1.4909 M442.4516,1.4749 C442.4306,1.4789 442.4106,1.4839 442.3916,1.4909 C442.3756,1.4949 442.3596,1.5009 442.3466,1.5049 C442.3306,1.5099 442.3166,1.5149 442.3016,1.5199 C442.2696,1.5379 442.2386,1.5569 442.2116,1.5809 C442.1896,1.5939 442.1706,1.6089 442.1506,1.6259 C442.1296,1.6489 442.1076,1.6729 442.0906,1.7009 L438.3106,5.4649 C438.1216,5.6559 438.1216,5.9649 438.3106,6.1559 C438.5006,6.3459 438.8106,6.3459 439.0006,6.1559 L442.0166,3.1409 L442.0166,18.2899 C442.0126,18.5549 442.2256,18.7739 442.4886,18.7759 C442.7546,18.7799 442.9736,18.5689 442.9766,18.3029 L442.9766,18.2899 L442.9766,3.1409 L445.9906,6.1559 C446.1806,6.3459 446.4906,6.3459 446.6806,6.1559 C446.8716,5.9649 446.8716,5.6559 446.6806,5.4649 L442.9006,1.7009 C442.8656,1.6469 442.8206,1.6009 442.7666,1.5659 C442.7116,1.5289 442.6506,1.5029 442.5866,1.4909 C442.5416,1.4789 442.4966,1.4739 442.4516,1.4749" id="Fill-43"></path>
        </g>
    </g>
</svg>