<?xml version="1.0" encoding="UTF-8" standalone="no"?>
<svg width="31px" height="24px" viewBox="0 0 31 24" version="1.1" xmlns="http://www.w3.org/2000/svg" xmlns:xlink="http://www.w3.org/1999/xlink">
    <!-- Generator: Sketch 3.7.2 (28276) - http://www.bohemiancoding.com/sketch -->
    <title>Fill 41</title>
    <desc>Created with Sketch.</desc>
    <defs></defs>
    <g id="Page-1" stroke="none" stroke-width="1" fill="none" fill-rule="evenodd">
        <g id="icon-sprite" transform="translate(-333.000000, 0.000000)" fill="#8492A6">
            <path d="M348.208,10.437 L347.776,10.85 L344.776,13.85 C344.539,14.087 344.539,14.474 344.776,14.712 C345.015,14.951 345.401,14.951 345.64,14.712 L347.608,12.744 L347.608,23.281 C347.604,23.613 347.868,23.884 348.2,23.89 C348.53,23.894 348.804,23.629 348.808,23.298 L348.808,23.281 L348.808,12.744 L350.776,14.712 C351.015,14.951 351.401,14.951 351.64,14.712 C351.878,14.474 351.878,14.087 351.64,13.85 L348.64,10.85 L348.208,10.437 Z M350.608,0.201 C347.479,0.201 344.831,2.072 343.558,4.718 C342.881,4.252 342.096,3.913 341.214,3.913 C338.979,3.913 337.196,5.683 337.071,7.888 C334.835,8.695 333.208,10.78 333.208,13.288 C333.208,16.484 335.804,19.082 339.002,19.082 L344.009,19.082 C344.34,19.085 344.612,18.822 344.616,18.49 C344.621,18.158 344.356,17.886 344.024,17.881 L344.009,17.881 L339.002,17.881 C336.453,17.881 334.408,15.836 334.408,13.288 C334.408,11.166 335.839,9.38 337.783,8.843 C338.048,8.767 338.226,8.519 338.214,8.244 C338.212,8.16 338.214,8.117 338.214,8.113 C338.214,6.447 339.547,5.113 341.214,5.113 C342.048,5.113 342.808,5.449 343.353,5.994 C343.59,6.224 343.97,6.219 344.2,5.982 C344.255,5.925 344.298,5.86 344.327,5.788 C345.27,3.238 347.724,1.4 350.608,1.4 C354.31,1.4 357.302,4.392 357.302,8.093 C357.302,8.367 357.28,8.638 357.245,8.919 C357.204,9.248 357.437,9.548 357.767,9.589 C357.786,9.591 357.806,9.593 357.827,9.593 L357.864,9.593 C360.159,9.593 362.009,11.443 362.009,13.738 C362.009,16.033 360.159,17.881 357.864,17.881 L352.408,17.881 C352.077,17.876 351.805,18.142 351.8,18.473 C351.796,18.804 352.06,19.077 352.392,19.082 L352.408,19.082 L357.864,19.082 C360.808,19.082 363.208,16.68 363.208,13.738 C363.208,11.007 361.112,8.837 358.464,8.525 C358.474,8.38 358.502,8.244 358.502,8.093 C358.502,3.744 354.96,0.201 350.608,0.201 L350.608,0.201 Z" id="Fill-41"></path>
        </g>
    </g>
</svg>